JoggingL1_ID_grf.mot
version=1
datacolumns 10
datarows 83
range 0.395000 0.477000
inDegrees=no
endheader
time	1_ground_force_vx	1_ground_force_vy	1_ground_force_vz	1_ground_force_px	1_ground_force_py	1_ground_force_pz	1_ground_torque_x	1_ground_torque_y	1_ground_torque_z
0.395000	-137.716997	489.331360	-15.733798	0.836378	-0.000000	0.114106	0.000000	-4.137828	-0.000000
0.396000	-134.252275	479.223907	-14.773723	0.834507	-0.000000	0.114596	0.000000	-3.991207	-0.000000
0.397000	-131.603288	467.888153	-13.857228	0.832475	-0.000000	0.115608	0.000000	-3.584654	-0.000000
0.398000	-130.037812	452.594421	-13.071712	0.834905	-0.000000	0.114907	0.000000	-3.886889	-0.000000
0.399000	-126.462167	439.497498	-12.155553	0.834737	-0.000000	0.114391	0.000000	-3.649058	-0.000000
0.400000	-123.528993	427.462830	-10.911967	0.833742	-0.000000	0.114702	0.000000	-3.447059	-0.000000
0.401000	-120.371804	413.672333	-9.887202	0.834177	-0.000000	0.115008	0.000000	-3.452472	-0.000000
0.402000	-118.479279	401.196198	-9.100285	0.833947	-0.000000	0.115164	0.000000	-3.512210	-0.000000
0.403000	-114.945458	388.092468	-8.557171	0.834604	-0.000000	0.115460	0.000000	-3.207694	-0.000000
0.404000	-112.145753	377.200287	-7.247211	0.832395	-0.000000	0.116507	0.000000	-2.997193	-0.000000
0.405000	-108.656197	364.366760	-6.307955	0.832734	-0.000000	0.115498	0.000000	-3.005283	-0.000000
0.406000	-106.030762	352.236267	-5.524105	0.833646	-0.000000	0.115879	-0.000000	-3.068624	-0.000000
0.407000	-103.096833	340.286743	-4.366135	0.833237	-0.000000	0.116091	0.000000	-2.918623	-0.000000
0.408000	-99.983673	327.626953	-3.732684	0.832998	-0.000000	0.116242	-0.000000	-2.803750	-0.000000
0.409000	-97.051712	316.286377	-3.145178	0.833967	-0.000000	0.116410	0.000000	-2.772613	-0.000000
0.410000	-93.583412	306.000336	-2.140980	0.833179	-0.000000	0.116368	0.000000	-2.559212	-0.000000
0.411000	-90.697319	295.813110	-1.311324	0.832650	-0.000000	0.116456	0.000000	-2.663350	-0.000000
0.412000	-86.657593	284.290222	-0.720898	0.833412	-0.000000	0.115363	0.000000	-2.733098	-0.000000
0.413000	-83.059189	275.062836	-0.415952	0.831870	-0.000000	0.116670	0.000000	-2.608091	-0.000000
0.414000	-79.684204	265.744293	0.085082	0.832012	-0.000000	0.116978	0.000000	-2.478926	-0.000000
0.415000	-76.063934	256.955292	0.718708	0.832504	-0.000000	0.116591	0.000000	-2.327858	-0.000000
0.416000	-72.471359	248.342056	1.176483	0.831201	-0.000000	0.117733	0.000000	-2.226768	-0.000000
0.417000	-68.474800	240.435852	1.592607	0.832805	-0.000000	0.117541	0.000000	-2.159651	-0.000000
0.418000	-65.386963	232.966873	1.808347	0.831532	-0.000000	0.116921	0.000000	-2.145482	-0.000000
0.419000	-62.140877	225.060135	2.290893	0.832575	-0.000000	0.116498	0.000000	-2.310732	-0.000000
0.420000	-59.011555	217.570618	2.271204	0.832514	-0.000000	0.116970	0.000000	-2.262579	-0.000000
0.421000	-55.518684	212.138947	2.178709	0.831309	-0.000000	0.117894	0.000000	-2.254366	-0.000000
0.422000	-52.785854	204.569702	2.727307	0.831278	-0.000000	0.116611	0.000000	-2.247073	-0.000000
0.423000	-49.584652	198.507126	2.814586	0.831353	-0.000000	0.117208	0.000000	-2.216056	-0.000000
0.424000	-46.648235	192.265091	2.965947	0.830794	-0.000000	0.117039	0.000000	-1.918414	-0.000000
0.425000	-43.976608	186.460587	3.122896	0.829453	-0.000000	0.118781	0.000000	-1.645660	-0.000000
0.426000	-41.634529	180.241486	2.750529	0.829738	-0.000000	0.117599	0.000000	-1.970626	-0.000000
0.427000	-39.563091	171.960327	2.810661	0.834345	-0.000000	0.115594	0.000000	-2.080601	-0.000000
0.428000	-37.285618	166.421280	3.404231	0.834138	-0.000000	0.115207	0.000000	-1.928422	-0.000000
0.429000	-35.479095	160.890274	3.382912	0.832643	-0.000000	0.115422	-0.000000	-1.817131	-0.000000
0.430000	-33.509395	154.562195	3.466118	0.834941	-0.000000	0.115044	0.000000	-1.767725	-0.000000
0.431000	-32.101238	148.577347	3.927958	0.835802	-0.000000	0.113872	0.000000	-1.716256	-0.000000
0.432000	-30.267404	143.571335	3.949226	0.835292	-0.000000	0.115291	0.000000	-1.615253	-0.000000
0.433000	-28.918129	138.132294	3.994069	0.834240	-0.000000	0.115606	0.000000	-1.382373	-0.000000
0.434000	-27.842729	132.326324	3.822113	0.832397	-0.000000	0.114936	0.000000	-1.516506	-0.000000
0.435000	-26.422388	127.052925	3.555001	0.834239	-0.000000	0.118599	0.000000	-1.411134	-0.000000
0.436000	-25.440809	121.353523	3.711077	0.830935	-0.000000	0.117005	0.000000	-1.190378	-0.000000
0.437000	-23.707218	115.003677	3.536518	0.835696	-0.000000	0.114734	0.000000	-1.235508	-0.000000
0.438000	-22.942453	110.614693	3.531046	0.836231	-0.000000	0.114072	0.000000	-1.303580	-0.000000
0.439000	-21.719621	105.522652	3.822319	0.838640	-0.000000	0.115615	0.000000	-1.100718	-0.000000
0.440000	-21.195661	100.493172	3.449279	0.840950	-0.000000	0.114023	0.000000	-1.042210	-0.000000
0.441000	-20.349914	96.903961	3.295831	0.840520	-0.000000	0.116873	0.000000	-1.144141	-0.000000
0.442000	-19.959945	91.727127	3.229654	0.842559	-0.000000	0.118771	0.000000	-1.096754	-0.000000
0.443000	-18.964693	86.430359	3.208560	0.842630	-0.000000	0.115167	0.000000	-1.069658	-0.000000
0.444000	-17.978317	82.671776	3.079107	0.837826	-0.000000	0.118089	0.000000	-0.931566	-0.000000
0.445000	-16.687877	77.726028	3.028048	0.842992	-0.000000	0.115291	0.000000	-0.875159	-0.000000
0.446000	-16.228246	74.574081	3.428308	0.841398	-0.000000	0.117153	0.000000	-0.706921	-0.000000
0.447000	-15.497707	70.355370	3.187531	0.842523	-0.000000	0.118986	0.000000	-0.909578	-0.000000
0.448000	-15.010763	66.137848	2.991993	0.849438	-0.000000	0.116486	0.000000	-0.736858	-0.000000
0.449000	-14.467372	62.175961	2.856041	0.855635	-0.000000	0.115896	0.000000	-0.844188	-0.000000
0.450000	-13.425704	58.843281	2.950408	0.857097	-0.000000	0.118309	-0.000000	-0.541348	-0.000000
0.451000	-12.740696	54.554688	2.702341	0.860094	-0.000000	0.114844	0.000000	-0.671993	0.000000
0.452000	-12.186262	50.109295	2.925955	0.870119	-0.000000	0.114625	-0.000000	-0.426246	-0.000000
0.453000	-11.706297	48.311302	2.772305	0.874282	-0.000000	0.114152	0.000000	-0.578322	-0.000000
0.454000	-10.844722	43.458847	2.685025	0.888005	-0.000000	0.112604	-0.000000	-0.539853	-0.000000
0.455000	-10.050279	40.027405	2.597746	0.894140	-0.000000	0.109023	0.000000	-0.380666	-0.000000
0.456000	-9.319201	37.283970	2.447813	0.896049	-0.000000	0.109212	0.000000	-0.312019	-0.000000
0.457000	-8.874026	35.793644	2.140446	0.876183	-0.000000	0.110389	0.000000	-0.432911	-0.000000
0.458000	-8.570855	33.531521	1.945020	0.878813	-0.000000	0.112557	0.000000	-0.400695	-0.000000
0.459000	-7.885781	30.420551	1.870915	0.894679	-0.000000	0.124115	0.000000	-0.364973	-0.000000
0.460000	-7.225705	28.793571	2.206933	0.897893	-0.000000	0.120436	0.000000	-0.047590	-0.000000
0.461000	-6.452343	24.810974	1.882566	0.932064	-0.000000	0.106798	0.000000	-0.138658	-0.000000
0.462000	-5.851528	22.953377	1.588067	0.941388	-0.000000	0.114231	0.000000	-0.133412	0.000000
0.463000	0.000000	0.000000	0.000000	0.000000	0.000000	0.000000	0.000000	0.000000	0.000000
0.464000	0.000000	0.000000	0.000000	0.000000	0.000000	0.000000	0.000000	0.000000	0.000000
0.465000	0.000000	0.000000	0.000000	0.000000	0.000000	0.000000	0.000000	0.000000	0.000000
0.466000	0.000000	0.000000	0.000000	0.000000	0.000000	0.000000	0.000000	0.000000	0.000000
0.467000	0.000000	0.000000	0.000000	0.000000	0.000000	0.000000	0.000000	0.000000	0.000000
0.468000	0.000000	0.000000	0.000000	0.000000	0.000000	0.000000	0.000000	0.000000	0.000000
0.469000	0.000000	0.000000	0.000000	0.000000	0.000000	0.000000	0.000000	0.000000	0.000000
0.470000	0.000000	0.000000	0.000000	0.000000	0.000000	0.000000	0.000000	0.000000	0.000000
0.471000	0.000000	0.000000	0.000000	0.000000	0.000000	0.000000	0.000000	0.000000	0.000000
0.472000	0.000000	0.000000	0.000000	0.000000	0.000000	0.000000	0.000000	0.000000	0.000000
0.473000	0.000000	0.000000	0.000000	0.000000	0.000000	0.000000	0.000000	0.000000	0.000000
0.474000	0.000000	0.000000	0.000000	0.000000	0.000000	0.000000	0.000000	0.000000	0.000000
0.475000	0.000000	0.000000	0.000000	0.000000	0.000000	0.000000	0.000000	0.000000	0.000000
0.476000	0.000000	0.000000	0.000000	0.000000	0.000000	0.000000	0.000000	0.000000	0.000000
0.477000	0.000000	0.000000	0.000000	0.000000	0.000000	0.000000	0.000000	0.000000	0.000000
